HIERARCHY
ROOT Hips
{
	OFFSET 0.00000 0.00000 0.00000
	CHANNELS 6 Xposition Yposition Zposition Zrotation Yrotation Xrotation 
	JOINT LHipJoint
	{
		OFFSET 0 0 0
		CHANNELS 3 Zrotation Yrotation Xrotation
		JOINT LeftHip
		{
			OFFSET 1.65412 -1.54119 0.76744
			CHANNELS 3 Zrotation Yrotation Xrotation
			JOINT LeftKnee
			{
				OFFSET 2.19550 -6.03209 0.00000
				CHANNELS 3 Zrotation Yrotation Xrotation
				JOINT LeftAnkle
				{
					OFFSET 2.38814 -6.56138 0.00000
					CHANNELS 3 Zrotation Yrotation Xrotation
					JOINT LeftToe
					{
						OFFSET 0.17337 -0.47632 1.75875
						CHANNELS 3 Zrotation Yrotation Xrotation
						End Site
						{
							OFFSET 0.00000 -0.00000 0.92050
						}
					}
				}
			}
		}
	}
	JOINT RHipJoint
	{
		OFFSET 0 0 0
		CHANNELS 3 Zrotation Yrotation Xrotation
		JOINT RightHip
		{
			OFFSET -1.40291 -1.54119 0.76744
			CHANNELS 3 Zrotation Yrotation Xrotation
			JOINT RightKnee
			{
				OFFSET -2.22156 -6.10370 0.00000
				CHANNELS 3 Zrotation Yrotation Xrotation
				JOINT RightAnkle
				{
					OFFSET -2.46840 -6.78188 0.00000
					CHANNELS 3 Zrotation Yrotation Xrotation
					JOINT RightToe
					{
						OFFSET -0.15659 -0.43024 1.84117
						CHANNELS 3 Zrotation Yrotation Xrotation
						End Site
						{
							OFFSET -0.00000 -0.00000 0.95587
						}
					}
				}
			}
		}
	}
	JOINT lowerback
	{
		OFFSET 0 0 0
		CHANNELS 3 Zrotation Yrotation Xrotation
		JOINT Chest
		{
			OFFSET -0.01936 1.82120 -0.32061
			CHANNELS 3 Zrotation Yrotation Xrotation
			JOINT Chest2
			{
				OFFSET -0.00532 1.85767 -0.00071
				CHANNELS 3 Zrotation Yrotation Xrotation
				JOINT lowerneck
				{
					OFFSET 0 0 0
					CHANNELS 3 Zrotation Yrotation Xrotation
					JOINT Neck
					{
						OFFSET -0.10687 1.58194 0.10810
						CHANNELS 3 Zrotation Yrotation Xrotation
						JOINT Head
						{
							OFFSET 0.15346 1.57382 -0.25612
							CHANNELS 3 Zrotation Yrotation Xrotation
							End Site
							{
								OFFSET 0.05334 1.61251 -0.10513
							}
						}
					}
				}
				JOINT LeftCollar
				{
					OFFSET 0 0 0
					CHANNELS 3 Zrotation Yrotation Xrotation
					JOINT LeftShoulder
					{
						OFFSET 2.85758 0.89498 -0.01485
CHANNELS 3 Zrotation Xrotation Yrotation
						JOINT LeftElbow
						{
OFFSET 0 -4.791850 -0.000000
CHANNELS 3 Zrotation Xrotation Yrotation
							JOINT LeftWrist
							{
OFFSET 0 -2.655530 0.000000
CHANNELS 3 Zrotation Xrotation Yrotation
								JOINT lhand
								{
									OFFSET 0 0 0
CHANNELS 3 Zrotation Xrotation Yrotation
									JOINT LFingers
									{
OFFSET 0 -0.743900 0.000000
CHANNELS 3 Zrotation Xrotation Yrotation
										End Site
										{
OFFSET 0 -0.599750 0.000000
										}
									}
								}
								JOINT LThumb
								{
OFFSET 0 0.000000 0.000000
CHANNELS 3 Zrotation Xrotation Yrotation
									End Site
									{
OFFSET 0 -0.608910 0.608910
									}
								}
							}
						}
					}
				}
				JOINT RightCollar
				{
					OFFSET 0 0 0
					CHANNELS 3 Zrotation Yrotation Xrotation
					JOINT RightShoulder
					{
						OFFSET -2.93906 0.88031 0.02490
CHANNELS 3 Zrotation Xrotation Yrotation
						JOINT RightElbow
						{
OFFSET 0 -4.772540 -0.000000
CHANNELS 3 Zrotation Xrotation Yrotation
							JOINT RightWrist
							{
OFFSET 0 -2.759950 -0.000000
CHANNELS 3 Zrotation Xrotation Yrotation
								JOINT rhand
								{
									OFFSET 0 0 0
CHANNELS 3 Zrotation Xrotation Yrotation
									JOINT RFingers
									{
OFFSET 0 -0.701620 0.000000
CHANNELS 3 Zrotation Xrotation Yrotation
										End Site
										{
OFFSET 0 -0.565660 0.000000
										}
									}
								}
								JOINT RThumb
								{
OFFSET 0 0.000000 0.000000
CHANNELS 3 Zrotation Xrotation Yrotation
									End Site
									{
OFFSET 0 -0.574300 0.574300
									}
								}
							}
						}
					}
				}
			}
		}
	}
}
MOTION
Frames: 11
Frame Time: 0.008333333333333333
0.287000 16.163300 -0.473100 -1.885100 1.777300 -1.824500 0.000000 0.000000 0.000000 -16.186800 -11.430900 9.162600 0.084200 1.871600 5.150900 -0.004200 5.612400 -7.882600 0.336800 -3.729500 -10.317000 0.000000 0.000000 0.000000 19.569000 10.528400 8.380300 -0.195700 -2.848600 7.857500 0.036900 -8.737100 -11.729900 -0.042900 1.336100 -3.674100 -1.692600 0.210800 9.411500 -0.575300 0.066100 0.124000 0.344400 0.067700 -5.154800 -17.062400 -10.573200 0.644600 24.075300 -15.182500 1.192400 9.584400 -7.548800 3.541900 0.000000 0.000000 0.000000 1.125200 -1.771800 -20.434500 11.133900 -18.493100 1.818200 12.454500 -4.155200 -11.377900 0.000000 0.000000 0.000000 -7.125000 0.000000 0.000000 -13.022700 41.267900 -1.221900 0.000000 0.000000 0.000000 -0.472100 1.806000 44.687100 -12.795100 -20.986300 -2.379400 -5.947700 11.761600 -11.622700 0.000000 0.000000 0.000000 7.125000 0.000000 -0.000000 14.775200 18.500100 9.649100
0.291002 16.164526 -0.464799 -1.942127 1.763778 -1.679118 0.000000 0.000000 0.000000 -16.102377 -11.434809 9.084802 0.080774 1.833058 5.044478 -0.007150 5.634090 -7.825568 0.355908 -3.832734 -10.606645 0.000000 0.000000 0.000000 19.592547 10.556001 8.333987 -0.188123 -2.793312 7.703815 0.047382 -8.823652 -11.647733 -0.046123 1.386044 -3.811764 -1.455711 0.153677 9.548765 -0.488071 0.017644 0.116337 0.308335 0.039507 -5.238841 -16.265633 -9.671033 1.521142 23.717598 -13.227463 -3.462282 9.665167 -6.760108 1.578439 0.000000 0.000000 0.000000 1.045136 -1.742100 -19.873478 10.899954 -18.134642 1.744618 12.762972 -3.722820 -10.504228 0.000000 0.000000 0.000000 -7.125000 0.000000 0.000000 -12.552679 40.425394 -1.441521 0.000000 0.000000 0.000000 -0.584903 1.887349 44.542526 -12.895612 -21.134093 -2.415529 -5.899518 11.644057 -11.556761 0.000000 0.000000 0.000000 7.125000 0.000000 0.000000 14.812911 18.565915 9.653070
0.297849 16.164854 -0.452647 -1.870006 1.673260 -1.505133 0.000000 0.000000 0.000000 -16.176828 -11.346776 9.010572 0.077468 1.794756 4.938769 -0.006832 5.632922 -7.831995 0.325378 -3.666228 -10.139408 0.000000 0.000000 0.000000 19.448202 10.677216 8.273595 -0.183430 -2.758299 7.606531 0.049864 -8.828121 -11.603824 -0.052802 1.483328 -4.079826 -1.312971 0.129495 9.541365 -0.456439 0.002526 0.069211 0.263033 0.029258 -5.283693 -15.835959 -8.834516 2.027224 23.212048 -11.576213 -6.911329 9.688945 -6.047217 0.126413 0.000000 0.000000 0.000000 0.994034 -1.694613 -18.751200 10.678076 -17.793185 1.676227 12.465716 -3.277028 -10.577872 0.000000 0.000000 0.000000 -7.125000 0.000000 0.000000 -12.824793 40.473321 -1.458715 0.000000 0.000000 0.000000 -0.574418 2.044417 44.188193 -12.921165 -21.171573 -2.424706 -6.226078 11.637677 -11.356453 0.000000 0.000000 0.000000 7.125000 0.000000 0.000000 14.603069 18.748792 9.445259
0.298249 16.167154 -0.441069 -1.967131 1.655146 -1.353173 0.000000 0.000000 0.000000 -16.061438 -11.419140 8.731332 0.087719 1.910186 5.257562 0.004322 5.520445 -8.005541 0.318651 -3.628770 -10.034455 0.000000 0.000000 0.000000 19.524477 10.685369 8.288147 -0.170781 -2.662412 7.340158 0.064492 -8.924958 -11.447953 -0.060485 1.586529 -4.364334 -1.059166 0.152847 9.484325 -0.408723 0.065259 0.081609 0.161276 0.054071 -5.239154 -15.319918 -8.132621 1.982015 22.483061 -10.258268 -9.209567 9.526826 -5.427103 -0.852555 0.000000 0.000000 0.000000 0.997359 -1.815645 -18.513705 10.551773 -17.598003 1.637820 12.419817 -2.919205 -10.295443 0.000000 0.000000 0.000000 -7.125000 0.000000 0.000000 -12.799934 40.188379 -1.547377 0.000000 0.000000 0.000000 -0.412235 2.264601 43.307648 -12.998592 -21.285178 -2.452770 -6.400507 12.018569 -11.245608 0.000000 0.000000 0.000000 7.125000 0.000000 0.000000 14.490803 18.850396 9.333845
0.298490 16.166699 -0.423780 -1.611412 1.666284 -1.280928 0.000000 0.000000 0.000000 -16.425074 -11.136609 9.492017 0.045389 1.374842 3.780864 -0.029209 5.844693 -7.446300 0.355368 -3.829682 -10.597887 0.000000 0.000000 0.000000 19.143909 10.831927 7.879034 -0.210108 -2.950957 8.142257 0.029764 -8.729053 -11.863496 -0.063890 1.630479 -4.485566 -1.348394 0.164629 9.471837 -0.472679 0.045856 0.080385 0.260158 0.051028 -5.233586 -14.914710 -7.503600 0.953688 21.642181 -9.251080 -9.388628 9.191648 -4.858866 -0.999097 0.000000 0.000000 0.000000 0.959700 -1.850815 -18.529442 10.569616 -17.625616 1.643244 11.923029 -2.838783 -10.444480 0.000000 0.000000 0.000000 -7.125000 0.000000 0.000000 -13.259763 40.294802 -1.569728 0.000000 0.000000 0.000000 -0.474881 2.280651 43.325760 -12.961006 -21.230108 -2.439202 -6.897785 11.573965 -11.227061 0.000000 0.000000 0.000000 7.125000 0.000000 0.000000 14.149317 18.850130 9.099593
0.296790 16.165619 -0.402356 -1.722127 1.753103 -1.154556 0.000000 0.000000 0.000000 -16.296713 -11.308463 9.255410 0.055073 1.514202 4.164835 -0.016595 5.696283 -7.622833 0.315491 -3.610564 -9.983485 0.000000 0.000000 0.000000 19.257409 10.726016 7.894341 -0.202237 -2.895785 7.988687 0.017421 -8.644175 -11.984092 -0.044303 1.358238 -3.734978 -1.237473 0.151981 9.289312 -0.425975 0.045784 -0.012409 0.246449 0.049014 -5.227935 -14.355833 -7.040744 -0.869568 20.546860 -8.680774 -7.387069 8.620712 -4.430497 -0.328337 0.000000 0.000000 0.000000 0.847808 -1.795652 -19.086670 10.633064 -17.723652 1.662501 13.296569 -2.495809 -10.956208 0.000000 0.000000 0.000000 -7.125000 0.000000 0.000000 -12.195080 40.923121 -1.246667 0.000000 0.000000 0.000000 -0.480626 2.466361 43.018525 -13.005070 -21.294709 -2.455139 -6.966739 11.608830 -11.217314 0.000000 0.000000 0.000000 7.125000 0.000000 0.000000 14.102350 18.856938 9.065220
0.293806 16.163986 -0.383761 -1.755993 1.722061 -1.206160 0.000000 0.000000 0.000000 -16.262347 -11.248944 9.341662 0.056300 1.531454 4.212311 -0.013552 5.715115 -7.747691 0.339912 -3.746391 -10.364163 0.000000 0.000000 0.000000 19.326568 10.738601 7.947480 -0.208752 -2.941769 8.116753 0.013885 -8.625125 -12.025249 -0.052863 1.483879 -4.081344 -1.202667 0.232397 9.160460 -0.421681 0.158708 -0.031183 0.216372 0.103758 -5.176557 -13.654846 -6.656058 -2.999024 19.140497 -8.339758 -4.157041 7.906853 -4.088962 0.768415 0.000000 0.000000 0.000000 0.795043 -1.916068 -19.289984 10.633896 -17.724904 1.662743 12.859680 -2.819759 -10.725931 0.000000 0.000000 0.000000 -7.125000 0.000000 0.000000 -12.519171 40.655031 -1.366451 0.000000 0.000000 0.000000 -0.357087 2.474934 42.304921 -12.958129 -21.225821 -2.438106 -6.754389 11.794816 -11.216989 0.000000 0.000000 0.000000 7.125000 0.000000 0.000000 14.248888 18.865288 9.162832
0.296941 16.158496 -0.357146 -1.731769 1.784363 -1.276756 0.000000 0.000000 0.000000 -16.374832 -11.294059 9.400993 0.064842 1.642533 4.518672 -0.003251 5.625040 -7.930230 0.362192 -3.865574 -10.698888 0.000000 0.000000 0.000000 19.295131 10.609503 8.126307 -0.206608 -2.926458 8.073977 0.019299 -8.679606 -11.998019 -0.077995 1.801954 -4.958757 -1.228654 0.223976 8.810634 -0.374955 0.153200 -0.017478 0.281509 0.101259 -4.965330 -13.221960 -6.201189 -4.740005 17.772657 -7.941234 -0.661653 7.312802 -3.751838 1.898639 0.000000 0.000000 0.000000 0.565623 -2.003611 -19.135622 10.738308 -17.886041 1.694667 12.867010 -2.955930 -10.648205 0.000000 0.000000 0.000000 -7.125000 0.000000 0.000000 -12.495583 40.578006 -1.387172 0.000000 0.000000 0.000000 -0.250824 2.330879 41.643813 -12.743159 -20.909745 -2.360870 -6.846179 12.082603 -11.081646 0.000000 0.000000 0.000000 7.125000 0.000000 0.000000 14.194886 18.993806 9.083850
0.289793 16.152384 -0.342152 -1.784514 1.805580 -1.484656 0.000000 0.000000 0.000000 -16.343322 -11.339913 9.389216 0.081327 1.839997 5.063722 0.013450 5.454146 -8.178142 0.360928 -3.859613 -10.682212 0.000000 0.000000 0.000000 19.461323 10.477979 8.416938 -0.205112 -2.916082 8.045326 0.016055 -8.651633 -12.020569 -0.078978 1.812581 -4.987934 -1.248995 0.273437 8.766164 -0.305250 0.221411 0.010518 0.356858 0.135943 -4.912357 -12.433856 -5.678966 -6.060329 16.078459 -7.442445 2.712920 6.612516 -3.417232 2.905111 0.000000 0.000000 0.000000 0.386219 -2.073570 -19.985139 10.910746 -18.151299 1.747965 13.243534 -3.386047 -10.592627 0.000000 0.000000 0.000000 -7.125000 0.000000 0.000000 -12.158540 40.554769 -1.355403 0.000000 0.000000 0.000000 -0.105880 2.275452 40.782777 -12.615046 -20.720667 -2.315316 -7.253424 12.477457 -11.345298 0.000000 0.000000 0.000000 7.125000 0.000000 0.000000 13.896128 18.720892 8.967789
0.283464 16.149543 -0.328063 -1.847893 1.885463 -1.612369 0.000000 0.000000 0.000000 -16.301744 -11.512841 9.184133 0.106486 2.103776 5.792453 0.033493 5.272981 -8.496085 0.344833 -3.772996 -10.438842 0.000000 0.000000 0.000000 19.594717 10.347462 8.531164 -0.211475 -2.960619 8.169045 0.003206 -8.576667 -12.163857 -0.071413 1.724185 -4.744034 -1.262877 0.279094 8.665958 -0.233044 0.233462 0.071250 0.438691 0.142206 -4.793118 -11.647202 -5.124465 -7.165497 14.470238 -6.850182 5.833752 5.981930 -3.074060 3.827907 0.000000 0.000000 0.000000 0.235500 -2.115182 -20.518912 11.315760 -18.770582 1.876278 13.122154 -3.662786 -11.280927 0.000000 0.000000 0.000000 -7.125000 0.000000 0.000000 -12.420862 41.232047 -1.174564 0.000000 0.000000 0.000000 -0.039378 2.265723 40.313779 -12.617379 -20.724017 -2.316085 -7.867376 12.536659 -11.385644 0.000000 0.000000 0.000000 7.125000 0.000000 0.000000 13.469812 18.656495 8.696222
0.282539 16.141967 -0.323892 -1.981080 1.950372 -1.807918 0.000000 0.000000 0.000000 -16.228898 -11.688159 8.946662 0.142565 2.433207 6.704491 0.061969 5.014931 -8.920428 0.314924 -3.607289 -9.974423 0.000000 0.000000 0.000000 19.790851 10.246151 8.607229 -0.223814 -3.045077 8.404338 -0.008868 -8.476312 -12.253498 -0.071319 1.721217 -4.735830 -1.044505 0.310399 8.774998 -0.243764 0.295948 0.186127 0.296789 0.167299 -4.734298 -11.119950 -4.559288 -7.923583 13.607340 -6.229353 8.418817 5.662295 -2.731197 4.596678 0.000000 0.000000 0.000000 0.289350 -2.384624 -21.375624 11.429806 -18.944070 1.913147 12.723298 -4.601749 -11.551071 0.000000 0.000000 0.000000 -7.125000 0.000000 0.000000 -12.831342 41.464801 -1.139764 0.000000 0.000000 0.000000 0.142295 2.114210 39.715336 -12.636957 -20.752986 -2.323085 -8.215813 12.368215 -11.133270 0.000000 0.000000 0.000000 7.125000 0.000000 0.000000 13.243792 18.889636 8.471412
